<svg width="16" height="16" viewBox="0 0 16 16" fill="none" xmlns="http://www.w3.org/2000/svg">
<ellipse cx="8" cy="8.10925" rx="8" ry="7.89074" fill="#0A78FF"/>
<ellipse cx="3.54479" cy="9.1047" rx="1.47692" ry="1.45675" fill="#D9D9D9"/>
<ellipse cx="8.61559" cy="3.37472" rx="1.47692" ry="1.45675" fill="#D9D9D9"/>
<ellipse cx="8.61541" cy="3.37486" rx="0.738462" ry="0.728376" fill="#0A78FF"/>
<ellipse cx="3.54461" cy="9.1046" rx="0.738462" ry="0.728376" fill="#0A78FF"/>
<ellipse cx="9.79675" cy="12.698" rx="1.47692" ry="1.45675" fill="#D9D9D9"/>
<ellipse cx="9.79706" cy="12.6981" rx="0.738462" ry="0.728376" fill="#0A78FF"/>
<rect width="0.689145" height="7.1568" transform="matrix(0.995532 -0.0944292 0.0970378 0.995281 8.51465 4.48608)" fill="#D9D9D9"/>
<rect width="0.682492" height="5.31167" transform="matrix(0.53699 -0.843589 0.850174 0.526501 4.18457 9.92334)" fill="#D9D9D9"/>
<rect width="0.680417" height="4.85846" transform="matrix(-0.254806 -0.966992 0.968677 -0.248326 11.0532 13.3486)" fill="#D9D9D9"/>
<path d="M14.7202 12.4067L15.1879 11.5812L15.2618 11.4355H15.8771V12.4067H14.7202Z" fill="white"/>
<rect width="0.689208" height="4.79639" transform="matrix(-0.998816 0.0486569 -0.0500103 -0.998749 4.12842 15.0605)" fill="#D9D9D9"/>
<rect width="0.685304" height="5.28996" transform="matrix(0.76668 0.642029 -0.652373 0.757898 7.34033 4.0061)" fill="#D9D9D9"/>
<rect width="0.684016" height="3.04989" transform="matrix(-0.671643 0.740875 -0.749984 -0.661456 8.07715 2.12183)" fill="#D9D9D9"/>
<path d="M3.39697 15.2959V14.5675L4.33236 15.1259L3.39697 15.2959Z" fill="white"/>
<path d="M5.3662 0.655539L6.1539 0.437026L5.85851 0L5.12005 0.485584L5.3662 0.655539Z" fill="white"/>
</svg>
